<svg xmlns="http://www.w3.org/2000/svg" xmlns:xlink="http://www.w3.org/1999/xlink" viewBox="0 0 196.26 114.09"><defs><linearGradient id="linear-gradient" x1="165.55" y1="-476.58" x2="156.56" y2="-417.21" gradientTransform="rotate(32.45 -656.488 -176.3)" gradientUnits="userSpaceOnUse"><stop offset="0" stop-color="#a6a6a6"/><stop offset=".25" stop-color="#6f6f6f"/><stop offset=".49" stop-color="#3f3f3f"/><stop offset=".71" stop-color="#1d1d1d"/><stop offset=".88" stop-color="#080808"/><stop offset="1"/></linearGradient><linearGradient id="linear-gradient-2" x1="149.27" y1="-479.05" x2="140.28" y2="-419.67" xlink:href="#linear-gradient"/><linearGradient id="linear-gradient-3" x1="150.83" y1="-478.8" x2="141.85" y2="-419.44" xlink:href="#linear-gradient"/><linearGradient id="linear-gradient-4" x1="134.34" y1="-481.31" x2="125.36" y2="-421.93" xlink:href="#linear-gradient"/><linearGradient id="linear-gradient-5" x1="138.84" y1="-480.62" x2="129.86" y2="-421.25" xlink:href="#linear-gradient"/><linearGradient id="linear-gradient-6" x1="122.54" y1="-483.09" x2="113.56" y2="-423.71" xlink:href="#linear-gradient"/><linearGradient id="linear-gradient-7" x1="81.27" y1="-346.96" x2="152.62" y2="-401.9" xlink:href="#linear-gradient"/><linearGradient id="linear-gradient-8" x1="67.28" y1="-365.11" x2="138.64" y2="-420.07" xlink:href="#linear-gradient"/><linearGradient id="linear-gradient-9" x1="68.32" y1="-363.77" x2="139.67" y2="-418.72" xlink:href="#linear-gradient"/><linearGradient id="linear-gradient-10" x1="55.54" y1="-380.37" x2="126.89" y2="-435.32" xlink:href="#linear-gradient"/><linearGradient id="linear-gradient-11" x1="69.68" y1="-362.01" x2="141.02" y2="-416.96" xlink:href="#linear-gradient"/><linearGradient id="linear-gradient-12" x1="196.72" y1="-356.67" x2="128.76" y2="-399.9" xlink:href="#linear-gradient"/><linearGradient id="linear-gradient-13" x1="217.87" y1="-389.91" x2="149.9" y2="-433.14" xlink:href="#linear-gradient"/><linearGradient id="linear-gradient-14" x1="-30.83" y1="156.16" x2="-37.34" y2="195.48" gradientTransform="rotate(-11.5 -724.063 -155.34)" xlink:href="#linear-gradient"/><linearGradient id="linear-gradient-15" x1="-6.58" y1="160.17" x2="-13.09" y2="199.5" gradientTransform="rotate(-11.5 -724.063 -155.34)" xlink:href="#linear-gradient"/><linearGradient id="linear-gradient-16" x1="17.85" y1="164.22" x2="11.34" y2="203.54" gradientTransform="rotate(-11.5 -724.063 -155.34)" xlink:href="#linear-gradient"/><linearGradient id="linear-gradient-17" x1="-63.21" y1="254.16" x2="-27.28" y2="221.87" gradientTransform="rotate(-11.5 -724.063 -155.34)" xlink:href="#linear-gradient"/><linearGradient id="linear-gradient-18" x1="51.46" y1="280.45" x2="-27.45" y2="226.8" gradientTransform="rotate(-11.5 -724.063 -155.34)" xlink:href="#linear-gradient"/><linearGradient id="linear-gradient-19" x1="63.71" y1="262.42" x2="-15.19" y2="208.78" gradientTransform="rotate(-11.5 -724.063 -155.34)" xlink:href="#linear-gradient"/><linearGradient id="linear-gradient-20" x1="73.49" y1="248.04" x2="-5.41" y2="194.39" gradientTransform="rotate(-11.5 -724.063 -155.34)" xlink:href="#linear-gradient"/><linearGradient id="linear-gradient-21" x1="60.99" y1="266.44" x2="-17.92" y2="212.79" gradientTransform="rotate(-11.5 -724.063 -155.34)" xlink:href="#linear-gradient"/><radialGradient id="radial-gradient" cx="143.07" cy="-417.19" r="109.38" gradientTransform="rotate(32.45 -656.488 -176.3)" gradientUnits="userSpaceOnUse"><stop offset="0" stop-color="#fff"/><stop offset=".28" stop-color="#e5e5e5"/><stop offset=".46" stop-color="#d1d1d1"/><stop offset=".62" stop-color="#c9c9c9"/><stop offset=".87" stop-color="#b4b4b4"/><stop offset="1" stop-color="#a6a6a6"/></radialGradient><radialGradient id="radial-gradient-2" cx="46.2" cy="-348.05" r="109.5" xlink:href="#radial-gradient"/><radialGradient id="radial-gradient-3" cx="138.39" cy="-464.06" r="217.31" xlink:href="#radial-gradient"/><radialGradient id="radial-gradient-4" cx="182.91" cy="-383.21" r="73.06" xlink:href="#radial-gradient"/><radialGradient id="radial-gradient-5" cx="-10.57" cy="211.28" r="124.24" gradientTransform="rotate(-11.5 -724.063 -155.34)" xlink:href="#radial-gradient"/><radialGradient id="radial-gradient-6" cx="-93.78" cy="280.42" r="102.75" gradientTransform="rotate(-11.5 -724.063 -155.34)" xlink:href="#radial-gradient"/><radialGradient id="radial-gradient-7" cx="-11.35" cy="165.57" r="167.99" gradientTransform="rotate(-11.5 -724.063 -155.34)" xlink:href="#radial-gradient"/><radialGradient id="radial-gradient-8" cx="41.78" cy="257.76" r="109.07" gradientTransform="rotate(-11.5 -724.063 -155.34)" xlink:href="#radial-gradient"/><style>.cls-6{fill:#fff}</style></defs><g id="Layer_2" data-name="Layer 2"><g id="Layer_1-2" data-name="Layer 1"><path d="M179.69 20.63C174.47 13 162.7 5.46 153.54 4L130.29.24c-9.17-1.48-19.93 4.16-23.92 12.54l-10 21c-4 8.37-4.6 22.34-1.33 31l8.09 21.56c3.26 8.69 13.5 15.23 22.76 14.55l23.46-1.75c9.25-.65 21.65-7.14 27.47-14.31l14.69-18.08c5.85-7.2 6.37-19.37 1.15-27Z" style="fill:url(#radial-gradient)"/><path d="M97.39 64.92c-3.26-8.69-2.66-22.66 1.34-31l7.72-16.2c4-8.38 10.75-8.49 15-.25L131 35.94c4.27 8.24 3.71 21.41-1.24 29.26L118.54 83c-4.94 7.85-11.66 7.17-14.92-1.52Z" style="fill:url(#radial-gradient-2)"/><path d="M125.31 15.38c-4.27-8.24-.26-13.78 8.9-12.3l18 2.91c9.16 1.48 20.93 9 26.15 16.64l10 14.71C193.63 45 190.31 51 181 50.56l-21.54-.92c-9.27-.4-20.34-7.47-24.61-15.72Z" style="fill:url(#radial-gradient-3)"/><path d="M133.46 67.55c4.95-7.85 16.59-13.95 25.86-13.55l21.54.93c9.27.39 12.07 6.61 6.21 13.82l-11.35 14c-5.86 7.21-18.22 13.66-27.48 14.35L130 98.43c-9.25.69-12.78-5.17-7.83-13Z" style="fill:url(#radial-gradient-4)"/><path d="M172.63 35.79c-1.64-2.41-.92-4.31 1.48-4.33s5.47 1.74 7.18 4 1.39 4.45-1 4.63-5.95-1.79-7.66-4.3Z" style="fill:url(#linear-gradient)"/><path class="cls-6" d="M173 34.28c-.34-.48-.2-.88.31-.89a2.06 2.06 0 0 1 1.51.84c.34.49.22.89-.29.91a2.06 2.06 0 0 1-1.53-.86Z"/><path d="M148.48 36.72c-1.35-2.83.29-5 3.49-5.08a10.16 10.16 0 0 1 8.19 4.63c1.57 2.74.38 5.24-2.86 5.47a9.86 9.86 0 0 1-8.82-5.02Z" style="fill:url(#linear-gradient-2)"/><path class="cls-6" d="M149.54 34.94c-.28-.56.05-1 .73-1a2.08 2.08 0 0 1 1.73 1c.29.57 0 1.05-.7 1.07a2 2 0 0 1-1.76-1.07Z"/><path d="M164 23c-1.32-1.94-.45-3.33 1.83-3.17a9.93 9.93 0 0 1 6.43 3.56c1.44 1.9.84 3.45-1.44 3.4A9.73 9.73 0 0 1 164 23Z" style="fill:url(#linear-gradient-3)"/><path class="cls-6" d="M164.48 21.92c-.27-.39-.1-.68.38-.65a2 2 0 0 1 1.35.75c.28.39.12.69-.36.66a2 2 0 0 1-1.37-.76Z"/><path d="M141.42 22c-1-2.19.61-3.73 3.57-3.53s6 2 7.23 4-.07 3.91-3.07 3.84-6.63-2.06-7.73-4.31Z" style="fill:url(#linear-gradient-4)"/><path class="cls-6" d="M142.52 20.72c-.21-.44.12-.76.74-.73a2 2 0 0 1 1.53.86c.22.44-.09.77-.72.74a2 2 0 0 1-1.55-.87Z"/><path d="M156.92 12.68c-1.08-1.59-.13-2.61 2-2.34a9.71 9.71 0 0 1 5.83 3.21c1.19 1.57.46 2.72-1.72 2.53a9.46 9.46 0 0 1-6.11-3.4Z" style="fill:url(#linear-gradient-5)"/><path class="cls-6" d="M157.52 11.86c-.22-.32 0-.53.43-.48a2 2 0 0 1 1.22.67c.22.33 0 .55-.41.5a2 2 0 0 1-1.24-.69Z"/><path d="M135.89 10.37c-.84-1.75.79-2.83 3.53-2.49s5.51 1.92 6.48 3.59-.36 3-3.14 2.73-6-2.01-6.87-3.83Z" style="fill:url(#linear-gradient-6)"/><path class="cls-6" d="M137 9.49c-.18-.35.15-.58.73-.51a1.89 1.89 0 0 1 1.36.76c.18.35-.13.58-.71.52a1.85 1.85 0 0 1-1.38-.77Z"/><path d="M107.54 66.32c1.46-1.84 3.46-1.32 4.52 1.15s.64 6.28-.94 8.1-3.54 1-4.48-1.55-.52-5.9.9-7.7Z" style="fill:url(#linear-gradient-7)"/><path class="cls-6" d="M109 66.58c.3-.38.72-.28.92.23a1.76 1.76 0 0 1-.19 1.62c-.31.38-.71.26-.92-.25a1.82 1.82 0 0 1 .19-1.6Z"/><path d="M99.34 45.16c1.18-1.86 2.78-1.86 3.58.07a8.4 8.4 0 0 1-.84 7c-1.24 1.81-2.82 1.61-3.55-.38a8.49 8.49 0 0 1 .81-6.69Z" style="fill:url(#linear-gradient-8)"/><path class="cls-6" d="M100.46 45.09c.25-.38.57-.38.73 0a1.7 1.7 0 0 1-.17 1.4c-.25.38-.57.37-.73 0a1.77 1.77 0 0 1 .17-1.4Z"/><path d="M110 45.38c1.47-2.1 3.54-2.1 4.6.09a8.49 8.49 0 0 1-.92 8c-1.56 2-3.6 1.78-4.57-.48a8.61 8.61 0 0 1 .89-7.61Z" style="fill:url(#linear-gradient-9)"/><path class="cls-6" d="M111.43 45.31c.3-.43.72-.43.93 0a1.74 1.74 0 0 1-.18 1.59c-.31.43-.73.42-.94 0a1.75 1.75 0 0 1 .19-1.59Z"/><path d="M112.4 24.7c1.5-2.34 3.6-2.8 4.7-.93s.71 5.5-.91 7.87-3.67 2.52-4.67.56-.58-5.2.88-7.5Z" style="fill:url(#linear-gradient-10)"/><path class="cls-6" d="M113.87 24.31c.31-.48.74-.57.95-.19a1.7 1.7 0 0 1-.18 1.58c-.32.48-.74.56-1 .17a1.72 1.72 0 0 1 .23-1.56Z"/><path d="M123.84 45.67c1.9-2.41 4.65-2.42 6.14.13a8.61 8.61 0 0 1-1 9.25c-2 2.35-4.76 2-6.1-.63a8.78 8.78 0 0 1 .96-8.75Z" style="fill:url(#linear-gradient-11)"/><path class="cls-6" d="M125.75 45.59a.71.71 0 0 1 1.25 0 1.77 1.77 0 0 1-.21 1.84.7.7 0 0 1-1.25 0 1.79 1.79 0 0 1 .21-1.84Z"/><path d="M134.2 85.2a9.31 9.31 0 0 1 8.73-4.48c3.12.45 4.27 3.08 2.67 5.85a9.42 9.42 0 0 1-8.4 4.35c-3.2-.32-4.55-2.87-3-5.72Z" style="fill:url(#linear-gradient-12)"/><path class="cls-6" d="M137 83.68a1.92 1.92 0 0 1 1.8-.92.77.77 0 0 1 .59 1.23 1.93 1.93 0 0 1-1.78.91.77.77 0 0 1-.61-1.22Z"/><path d="M170.13 66.79c1.84-3 5.59-4.91 8.29-4.25s3.19 3.5 1.34 6.35-5.36 4.64-8 4.14-3.45-3.3-1.63-6.24Z" style="fill:url(#linear-gradient-13)"/><path class="cls-6" d="M172.77 65.34a1.79 1.79 0 0 1 1.71-.87c.55.12.69.72.31 1.33a1.77 1.77 0 0 1-1.69.86c-.56-.12-.71-.66-.33-1.32Z"/><path d="M58.71 11.68C49.6 9.9 36 12.85 28.42 18.24L9.25 31.93C1.7 37.32-2 48.91 1.08 57.67l7.65 22c3.06 8.76 12.45 19.11 20.89 23l20.91 9.63c8.43 3.89 20.32 1.34 26.41-5.66l15.45-17.78c6.1-7 10.34-20.29 9.44-29.52l-2.27-23.18c-.91-9.24-9.1-18.26-18.21-20Z" style="fill:url(#radial-gradient-5)"/><path d="M31.37 101.05c-8.43-3.89-17.83-14.24-20.88-23L4.58 61.1c-3-8.76 1.67-13.59 10.5-10.73l19.81 6.42c8.83 2.86 17.69 12.62 19.7 21.68L59.14 99c2 9.06-3.26 13.3-11.69 9.41Z" style="fill:url(#radial-gradient-6)"/><path d="M16.37 46.2c-8.83-2.86-9.88-9.62-2.32-15l14.87-10.63c7.56-5.4 21.19-8.35 30.3-6.57l17.45 3.42c9.11 1.79 10.93 8.35 4.06 14.58l-16 14.49c-6.87 6.23-19.72 9-28.55 6.14Z" style="fill:url(#radial-gradient-7)"/><path d="M58.85 77.55c-2-9.07 2-21.58 8.85-27.82l16-14.49c6.84-6.24 13.2-3.79 14.11 5.45l1.76 17.92c.9 9.24-3.34 22.53-9.44 29.53l-12 13.77c-6.1 7-12.72 5.31-14.73-3.75Z" style="fill:url(#radial-gradient-8)"/><path d="M18.05 38.6c-2.46-.94-2.14-3.21.15-5a11.6 11.6 0 0 1 7.8-2.21c2.81.37 4 2.29 2 4.48-2.24 2.52-7.07 3.83-9.95 2.73Z" style="fill:url(#linear-gradient-14)"/><path class="cls-6" d="M18 36.76c-.49-.16-.46-.63 0-1a2.28 2.28 0 0 1 1.77-.49c.51.14.54.59.05 1a2.18 2.18 0 0 1-1.82.49Z"/><path d="M42.39 33.16c-2.46-.94-2.14-3.2.15-5A11.56 11.56 0 0 1 50.38 26c2.81.38 4 2.29 2 4.48-2.28 2.52-7.11 3.78-9.99 2.68Z" style="fill:url(#linear-gradient-15)"/><path class="cls-6" d="M42.33 31.32c-.49-.16-.46-.63 0-1.05a2.28 2.28 0 0 1 1.77-.49c.51.14.54.59 0 1a2.18 2.18 0 0 1-1.77.54Z"/><path d="M66.93 28c-2.46-.94-2.14-3.21.15-5a11.6 11.6 0 0 1 7.84-2.21c2.81.37 4 2.29 2 4.48-2.28 2.55-7.11 3.85-9.99 2.73Z" style="fill:url(#linear-gradient-16)"/><path class="cls-6" d="M66.87 26.19c-.49-.16-.46-.63 0-1.05a2.24 2.24 0 0 1 1.77-.49c.51.13.54.59 0 1a2.21 2.21 0 0 1-1.77.54Z"/><path d="M24.64 78c-.67-3.12.89-5.29 3.8-4.51 3.28.88 6.46 4.9 6.69 8.49.21 3.23-2.14 4.44-5 3.12a11.14 11.14 0 0 1-5.49-7.1Z" style="fill:url(#linear-gradient-17)"/><path class="cls-6" d="M25.64 76.67c-.13-.66.2-1.07.75-.89a2.15 2.15 0 0 1 1.24 1.58c.11.67-.25 1-.8.84a2.2 2.2 0 0 1-1.19-1.53Z"/><path d="M71.46 91.13c-.9-2.63.28-6.7 2.63-9s4.86-2 5.69.65-.34 6.51-2.58 8.81-4.84 2.13-5.74-.46Z" style="fill:url(#linear-gradient-18)"/><path class="cls-6" d="M72.23 88.24a2 2 0 0 1 .54-1.86c.48-.47 1-.42 1.19.12a2 2 0 0 1-.53 1.84c-.43.48-1.02.44-1.2-.1Z"/><path d="M88.5 74a9.87 9.87 0 0 1 2.5-8.67c2.12-2.09 4.36-1.61 5 1a10 10 0 0 1-2.5 8.45c-1.99 2.14-4.27 1.8-5-.78Z" style="fill:url(#linear-gradient-19)"/><path class="cls-6" d="M89.24 71.2a2 2 0 0 1 .53-1.77c.43-.44.91-.35 1 .19a2 2 0 0 1-.52 1.77c-.38.43-.86.35-1.01-.19Z"/><path d="M82.57 53a10.07 10.07 0 0 1 2.68-9.21c2.28-2.08 4.72-1.33 5.47 1.61a10.14 10.14 0 0 1-2.63 9c-2.22 2.04-4.7 1.46-5.52-1.4Z" style="fill:url(#linear-gradient-20)"/><path class="cls-6" d="M83.35 50a2.09 2.09 0 0 1 .56-1.89.64.64 0 0 1 1.15.32 2.12 2.12 0 0 1-.55 1.88.65.65 0 0 1-1.16-.31Z"/><path d="M64.2 70.08c-1-3 .22-7.3 2.76-9.63s5.29-1.7 6.22 1.26-.3 7.08-2.71 9.38-5.26 1.91-6.27-1.01Z" style="fill:url(#linear-gradient-21)"/><path class="cls-6" d="M65 67a2.06 2.06 0 0 1 .57-2c.52-.48 1.1-.37 1.31.24a2.06 2.06 0 0 1-.57 2c-.52.46-1.1.35-1.31-.24Z"/></g></g></svg>